<svg aria-hidden="true" style="position: absolute; width: 0; height: 0; overflow: hidden;" version="1.1" xmlns="http://www.w3.org/2000/svg" xmlns:xlink="http://www.w3.org/1999/xlink">
<defs>
<symbol id="icon-facebook" viewBox="0 0 32 32">
<path  d="M21.329 5.313h2.921v-5.088c-0.504-0.069-2.237-0.225-4.256-0.225-4.212 0-7.097 2.649-7.097 7.519v4.481h-4.648v5.688h4.648v14.312h5.699v-14.311h4.46l0.708-5.688h-5.169v-3.919c0.001-1.644 0.444-2.769 2.735-2.769z"

></path>
</symbol>
<symbol id="icon-linkedin" viewBox="0 0 32 32">
<path  d="M31.992 32v-0.001h0.008v-11.736c0-5.741-1.236-10.164-7.948-10.164-3.227 0-5.392 1.771-6.276 3.449h-0.093v-2.913h-6.364v21.364h6.627v-10.579c0-2.785 0.528-5.479 3.977-5.479 3.399 0 3.449 3.179 3.449 5.657v10.401h6.62z"></path>
<path  d="M0.528 10.636h6.635v21.364h-6.635v-21.364z"></path>
<path  d="M3.843-0c-2.121 0-3.843 1.721-3.843 3.843s1.721 3.879 3.843 3.879c2.121 0 3.843-1.757 3.843-3.879-0.001-2.121-1.723-3.843-3.843-3.843v0z"></path>
</symbol>
<symbol id="icon-twitter" viewBox="0 0 32 32">
<path d="M32 6.078c-1.19 0.522-2.458 0.868-3.78 1.036 1.36-0.812 2.398-2.088 2.886-3.626-1.268 0.756-2.668 1.29-4.16 1.588-1.204-1.282-2.92-2.076-4.792-2.076-3.632 0-6.556 2.948-6.556 6.562 0 0.52 0.044 1.020 0.152 1.496-5.454-0.266-10.28-2.88-13.522-6.862-0.566 0.982-0.898 2.106-0.898 3.316 0 2.272 1.17 4.286 2.914 5.452-1.054-0.020-2.088-0.326-2.964-0.808 0 0.020 0 0.046 0 0.072 0 3.188 2.274 5.836 5.256 6.446-0.534 0.146-1.116 0.216-1.72 0.216-0.42 0-0.844-0.024-1.242-0.112 0.85 2.598 3.262 4.508 6.13 4.57-2.232 1.746-5.066 2.798-8.134 2.798-0.538 0-1.054-0.024-1.57-0.090 2.906 1.874 6.35 2.944 10.064 2.944 12.072 0 18.672-10 18.672-18.668 0-0.29-0.010-0.57-0.024-0.848 1.302-0.924 2.396-2.078 3.288-3.406z"></path>
</symbol>
<symbol id="modal-icon-close" viewBox="0 0 32 32">
<path d="M23.733 10.304l-1.504-1.504-5.963 5.963-5.963-5.963-1.504 1.504 5.963 5.963-5.963 5.963 1.504 1.504 5.963-5.963 5.963 5.963 1.504-1.504-5.963-5.963 5.963-5.963z"></path>
</symbol>
<symbol id="burger" viewBox="0 0 45 32">
<path stroke-linejoin="miter" stroke-linecap="round" stroke-miterlimit="4" stroke-width="2.6667" d="M6.667 1.333h32"></path>
<path stroke-linejoin="miter" stroke-linecap="round" stroke-miterlimit="4" stroke-width="2.6667" d="M6.667 10.667h32"></path>
<path stroke-linejoin="miter" stroke-linecap="round" stroke-miterlimit="4" stroke-width="2.6667" d="M6.667 20h32"></path>
</symbol>
<symbol id="close" viewBox="0 0 30 32">
<path d="M22.479 6.311l-7.42 7.42-7.42-7.42c-0.178-0.163-0.413-0.251-0.655-0.246s-0.472 0.104-0.643 0.275c-0.171 0.171-0.269 0.402-0.275 0.643s0.083 0.476 0.246 0.655l7.416 7.42-7.418 7.418c-0.091 0.086-0.163 0.19-0.213 0.305s-0.077 0.238-0.078 0.364 0.022 0.249 0.069 0.365c0.047 0.116 0.117 0.221 0.205 0.31s0.194 0.159 0.31 0.206 0.24 0.071 0.365 0.070c0.125-0.001 0.249-0.028 0.364-0.078s0.219-0.122 0.305-0.213l7.422-7.418 7.42 7.42c0.178 0.163 0.413 0.251 0.655 0.246s0.472-0.104 0.643-0.275c0.171-0.171 0.269-0.401 0.275-0.643s-0.083-0.476-0.246-0.655l-7.42-7.42 7.42-7.422c0.091-0.086 0.163-0.19 0.213-0.305s0.077-0.238 0.078-0.364c0.002-0.125-0.022-0.249-0.069-0.365s-0.117-0.221-0.205-0.31c-0.088-0.089-0.194-0.159-0.31-0.206s-0.24-0.071-0.365-0.070-0.249 0.028-0.364 0.078c-0.115 0.050-0.219 0.122-0.305 0.213v0.002z"></path>
</symbol>
</defs>
</svg>
